PathFileType	4	(X/Y/Z)	Formatted/subject18/trials/walk2/markers.trc
DataRate	CameraRate	NumFrames	NumMarkers	Units	OrigDataRate	OrigDataStartFrame	OrigNumFrames
200.00000000000426	200.00000000000426	4	64	m	200.00000000000426	161	215
Frame#	Time	CLAV			C7			RACR			RASH			RPSH			RLEL			RMEL			RUA1			RUA2			RUA3			RFAsuperior			RFAradius			RFAulna			RASI			RPSI			RCAL			RTOE			RMT5			RTH1			RTH2			RTH3			RTB1			RTB2			RTB3			RLFC			RMFC			RLMAL			RMMAL			RHJC			RKJC			REJC			RAJC			RSJC			LACR			LASH			LPSH			LLEL			LMEL			LUA1			LUA2			LUA3			LFAsuperior			LFAradius			LFAulna			LASI			LPSI			LCAL			LTOE			LMT5			LTH1			LTH2			LTH3			LTB1			LTB2			LTB3			LLFC			LMFC			LLMAL			LMMAL			LHJC			LKJC			LEJC			LAJC			LSJC			
		X1	Y1	Z1	X2	Y2	Z2	X3	Y3	Z3	X4	Y4	Z4	X5	Y5	Z5	X6	Y6	Z6	X7	Y7	Z7	X8	Y8	Z8	X9	Y9	Z9	X10	Y10	Z10	X11	Y11	Z11	X12	Y12	Z12	X13	Y13	Z13	X14	Y14	Z14	X15	Y15	Z15	X16	Y16	Z16	X17	Y17	Z17	X18	Y18	Z18	X19	Y19	Z19	X20	Y20	Z20	X21	Y21	Z21	X22	Y22	Z22	X23	Y23	Z23	X24	Y24	Z24	X25	Y25	Z25	X26	Y26	Z26	X27	Y27	Z27	X28	Y28	Z28	X29	Y29	Z29	X30	Y30	Z30	X31	Y31	Z31	X32	Y32	Z32	X33	Y33	Z33	X34	Y34	Z34	X35	Y35	Z35	X36	Y36	Z36	X37	Y37	Z37	X38	Y38	Z38	X39	Y39	Z39	X40	Y40	Z40	X41	Y41	Z41	X42	Y42	Z42	X43	Y43	Z43	X44	Y44	Z44	X45	Y45	Z45	X46	Y46	Z46	X47	Y47	Z47	X48	Y48	Z48	X49	Y49	Z49	X50	Y50	Z50	X51	Y51	Z51	X52	Y52	Z52	X53	Y53	Z53	X54	Y54	Z54	X55	Y55	Z55	X56	Y56	Z56	X57	Y57	Z57	X58	Y58	Z58	X59	Y59	Z59	X60	Y60	Z60	X61	Y61	Z61	X62	Y62	Z62	X63	Y63	Z63	X64	Y64	Z64	

162	3.245	1.84286170665123	1.435040228940691	-0.4948404622692204	1.7387306379679	1.531870670809897	-0.5201664873329682	1.753984789343335	1.497160935716499	-0.3583030458916159	1.809719485374169	1.444894976945609	-0.3740515588501676	1.695731076801941	1.469435250056395	-0.3694800698325427	1.674654628350047	1.174842577351665	-0.2744660243727327	1.657599701304024	1.160495581890603	-0.346961407777263	1.759640892214166	1.387499476464261	-0.3041718155512518	1.700959564940822	1.347695427642052	-0.3109423846940805	1.741333318704055	1.28572170649807	-0.3127978252775461	1.732251013016306	1.106169169742068	-0.2929617295764005	1.775919197509714	0.946958168842209	-0.2863370324292442	1.71829607702094	0.9330043199937079	-0.2640161610131802	1.801919413855565	1.038040070401322	-0.3978497311136166	1.639193641193254	1.088911982068347	-0.4648779411096955	1.425360131119125	0.2915080274055321	-0.4113675001433542	1.524406998830253	0.09770902280855677	-0.4596293266465704	1.525000489114722	0.1102410406505284	-0.3864029350799281	1.805986771078287	0.8351067131369241	-0.350376851413265	1.86621101339712	0.7259123143900579	-0.3824260358741183	1.825380801196977	0.5858152671288778	-0.3643078860141808	1.759080979631391	0.4069539568453144	-0.4239027518302084	1.659531749045744	0.3932738013417321	-0.3572616892128254	1.597293778593824	0.2911347160860534	-0.4196476052900735	1.846144132976505	0.5069281491947305	-0.3675956582690215	1.846863337611034	0.5147151652479756	-0.4801177261875694	1.492935730962263	0.2595502322551055	-0.3729037296785563	1.505702928931644	0.2531234709384845	-0.4545144143265911	1.743589378688182	0.9432408469387791	-0.4230974335659942	1.849839339463426	0.5155752612148821	-0.4311112500735327	1.680437042845995	1.167609735498627	-0.3150563157975609	1.47914543673761	0.2548263405622486	-0.4178744139779473	1.765659755339307	1.452001863190904	-0.3546632662319275	1.771627802159794	1.497287926653741	-0.6828015432699408	1.815303915451437	1.436819755431691	-0.6448112140672585	1.711897227978753	1.473957171681306	-0.6698522242009768	1.722654804634616	1.166343407898045	-0.7885084946769751	1.695501118955057	1.15810849031932	-0.7213723794371555	1.753540086776996	1.372588952623999	-0.7455305064989253	1.699409496080492	1.310017561315407	-0.7235556138535689	1.767353348384616	1.28868662078626	-0.745748359585645	1.772389715530951	1.098869249737076	-0.7690858380970257	1.823749064844886	0.9447253508793685	-0.7759660799068067	1.773485785916823	0.9373812727947393	-0.8086798232536282	1.799465416123561	1.053575766659482	-0.6518610241701051	1.633245872824455	1.092953989128271	-0.5648322293187876	1.629512142457086	0.05786132856253395	-0.5970447309738967	1.848195224604072	0.01727041157070518	-0.5331590610868397	1.832486231306033	0.02937814962017635	-0.6268755325460655	1.743747390608291	0.8128649790508032	-0.7019284328188506	1.81230441271336	0.7210555157329891	-0.6725089170087636	1.775656003857534	0.6049795680779428	-0.6628475612323877	1.788696616003771	0.3805080283636498	-0.5888704259641445	1.727947458107148	0.2783992402274491	-0.6479838408927735	1.749475758779366	0.1678345401965733	-0.5964094943085126	1.783279523995705	0.5204825226716008	-0.6520523152429525	1.791763410586106	0.5222221646085877	-0.5375953299335977	1.695747079480661	0.0934892941902114	-0.6361503030927442	1.70223065922668	0.09754799762997718	-0.5587958588622539	1.732410719023711	0.9527614492944728	-0.639539079042495	1.791729851013227	0.5217440165338543	-0.5960749565539806	1.721972850195716	1.162794109630586	-0.7476015058620099	1.689806180337098	0.07997167300251118	-0.5907886708862395	1.782007786564197	1.447757761528241	-0.677587028408037	
163	3.25	1.8484914210072	1.435561402869922	-0.4947102581339528	1.744550088321768	1.532525015219731	-0.5203047638509988	1.75930128319122	1.49775078202303	-0.3584085518039543	1.81501733664516	1.445421884992526	-0.3740133706553262	1.701046139515461	1.470098807645858	-0.3697593703962455	1.678636337417591	1.175740937809594	-0.2748850597551655	1.661578059766924	1.161536064918624	-0.3474076367916922	1.764570840148249	1.388053799853627	-0.3043225471889447	1.7057224606063	1.34851175253066	-0.3111778953577072	1.745827774103813	1.286364745236066	-0.3130588734853797	1.735589361369125	1.106569111123231	-0.2933178624138686	1.777670421331901	0.9469336356595867	-0.2866366108333367	1.719882714858489	0.933551140688903	-0.264391498511176	1.807308287824774	1.039347998111192	-0.3979241392748221	1.644514223884898	1.089684734536022	-0.465190142073553	1.440061385049955	0.2878985580942408	-0.4123555935529012	1.543441606913866	0.09638707680654079	-0.4606611040661974	1.543660949330454	0.1088604933920132	-0.3874226313119815	1.813071386332783	0.8371298091572318	-0.3502753363338056	1.874900453019184	0.7288847980143693	-0.3824888487244638	1.83612816205369	0.588173444483102	-0.3646120292466334	1.772414135976452	0.4085017672974739	-0.4245213588284525	1.673050753889976	0.3933059271353397	-0.3579313300427993	1.612278708784114	0.2904009481688999	-0.4205035608261602	1.858048712990718	0.5096053344939374	-0.3680244050011816	1.858679717053164	0.5175878331157118	-0.4805333032831072	1.508365210002944	0.2572675736231755	-0.3738416288709563	1.521243286593702	0.2511569717478539	-0.4554591768724436	1.749109421093401	0.944455723879981	-0.4228337512175068	1.861630308375448	0.5184065398681192	-0.4315246179225466	1.684420205680383	1.168520967359893	-0.315477435532528	1.494654805221301	0.2524237268740233	-0.4188239783346964	1.770911206307006	1.452576577471673	-0.3547485536143663	1.777868361902893	1.497948760862967	-0.682855452268767	1.821362949965349	1.437416960702119	-0.6447583435241871	1.718072980800008	1.474686635690869	-0.6700829656209433	1.730455519202506	1.166677590638189	-0.7886162865350649	1.702959588745201	1.158404647523162	-0.7216242966891915	1.760355494949559	1.373072170622815	-0.7456569843590766	1.706330472947974	1.310324858335153	-0.7239252664190918	1.774473175851232	1.28922026600738	-0.7457211898137996	1.780520801181161	1.099532956643669	-0.7688558060557806	1.832909369787001	0.9457114894348342	-0.7751689787541668	1.782829976511126	0.9379654804102479	-0.8080714924664408	1.80491566451096	1.053970882244703	-0.6519902007167626	1.638594368817928	1.093358528617717	-0.5651602978904716	1.629682772987598	0.05823592371642253	-0.5972238403997658	1.848243594915894	0.01723675351500066	-0.5331806757583823	1.832630523001041	0.02941041316195529	-0.6269046364624737	1.74840293667877	0.8131287446908335	-0.701722607374491	1.816123898704724	0.7207364999242472	-0.6721913501308442	1.778481473039299	0.6049691430423554	-0.6626498533026611	1.790083714602825	0.3803811503125313	-0.5887431639499365	1.729004929417252	0.2785377544412944	-0.6479746196300542	1.750033106067681	0.1678673165538321	-0.5964207273143411	1.785372135833586	0.5204073151319635	-0.6518692176822709	1.793627559341826	0.5220360439712854	-0.5373938954642438	1.696060440212572	0.09375140727732173	-0.6362591735486413	1.702464646133665	0.09775204396345433	-0.5588950928989703	1.738109331741667	0.9530939141501967	-0.6393065276394065	1.793683232308948	0.5216070741549041	-0.59588403484978	1.729559370305419	1.163162576944525	-0.7477104689800592	1.690010333609456	0.08023831873909376	-0.5909106268255621	1.78817353850263	1.448404586388377	-0.6776256712294034	
164	3.255	1.8541080530187	1.436042824841213	-0.4945725670057601	1.750356250066266	1.5331409865208	-0.5204246823120875	1.764614598908164	1.498296804008422	-0.358499357075349	1.820310232118864	1.445905210035002	-0.3739660881611006	1.706357708971673	1.470719341912026	-0.3700212012681705	1.682579630239544	1.176616055775199	-0.2752843388814096	1.665520812060852	1.162551863054042	-0.3478342019806826	1.769487210209746	1.3885688449806	-0.3044587027490616	1.710468718299583	1.349296235146584	-0.3113999424938913	1.750297604611988	1.286972341059182	-0.3133017327085807	1.738887730945676	1.106952244390358	-0.2936516854579015	1.779384220535305	0.9469099003682317	-0.2869120854996561	1.721437538066344	0.9340981944896446	-0.2647446003774087	1.812688375262365	1.040634397532709	-0.3979937581763381	1.64982245678783	1.090419382205374	-0.4654960345903282	1.454941443070884	0.2839847122723921	-0.4132972819213012	1.562728273121794	0.09492810124193328	-0.4616412285624733	1.562568901497448	0.1073348548648579	-0.388391278466887	1.820104718897225	0.8391252031249947	-0.3501516150406136	1.883494253087405	0.7318337278434909	-0.3825218574283928	1.846746575619789	0.5905500735734257	-0.36488401541782	1.785717199774252	0.4100238445142215	-0.4250992548895058	1.686578015841361	0.3932257451817475	-0.3585599938513264	1.627377674095068	0.2895183779919843	-0.4213139718553398	1.869796721860031	0.5123112604348387	-0.3684169527101117	1.870343335065079	0.5204843757247086	-0.4809126061525834	1.523963812975595	0.2547484608448694	-0.3747328831876319	1.536951992125436	0.2489643280379764	-0.4563567734635497	1.754624211996683	0.945636807865079	-0.4225552738606905	1.873269670111626	0.52127095274022	-0.4319018969091727	1.688366301991328	1.169406313639813	-0.3158781330500361	1.510338681217497	0.2497713353981377	-0.4197265918672436	1.776159389482805	1.453107340362701	-0.3548217431274411	1.784084697145577	1.498576491225825	-0.6828932594200394	1.827399512756845	1.43797960121846	-0.6446949428847666	1.724225781400957	1.475382993910911	-0.6702947526786853	1.738267234624182	1.16696914974224	-0.7886797083439903	1.710442629052953	1.158654584856396	-0.7218287261629357	1.767150412194257	1.373516397322207	-0.7457585083287539	1.713248145472235	1.310584298183031	-0.7242575244818428	1.781586983332439	1.289718832742757	-0.7456661593002665	1.788671345206476	1.100164715588625	-0.7685845271006304	1.84210333504245	0.9466801743109489	-0.7743273570055482	1.792207564679267	0.9385250914723	-0.8074095035355794	1.810353293980352	1.054327385744653	-0.6521121684353308	1.643929164323199	1.093717928758283	-0.5654808444145822	1.629847576359046	0.05860156194191014	-0.5974028615846717	1.848280894878946	0.01720130390096752	-0.5331829599109097	1.83277176190621	0.02943971052273794	-0.626915745059301	1.753057310860131	0.8133603639941707	-0.7015012609967002	1.819930834955021	0.720390096469534	-0.6718531265419374	1.781292350261782	0.6049410398137745	-0.6624373892354856	1.791449866487076	0.3802462587217253	-0.5886021023450938	1.730051659423938	0.2786669476379661	-0.6479566670684366	1.750579187402801	0.1678937950982339	-0.5964216001738386	1.787445655274601	0.5203203954573108	-0.6516721923591131	1.795459711077566	0.5218399927792208	-0.5371782191316117	1.696369838996524	0.09400593943276175	-0.6363621784906295	1.702687648326645	0.09794943365678216	-0.5589880609789166	1.743805489286536	0.953385850921823	-0.6390573599163698	1.79561069532716	0.5214599832687883	-0.5956789401252309	1.73716420624027	1.163489225252014	-0.74777594607348	1.690207196980962	0.08049779909554189	-0.5910273129932625	1.794315068630151	1.449018143190515	-0.6776509185174783	
165	3.26	1.859712988746782	1.436481564293893	-0.4944266335166103	1.756150677837654	1.533715771426637	-0.5205260244228218	1.769925643616466	1.498796385623214	-0.3585750585949488	1.825599098686782	1.446342233780598	-0.3739090340514551	1.711666670979012	1.471294311370001	-0.3702653346119384	1.686491194600107	1.177462653880705	-0.2756674953933789	1.66943624314261	1.163537877838016	-0.3482451549947888	1.774391652651845	1.389041491976142	-0.3045804779408061	1.715201197473553	1.3500443681757	-0.3116100889399746	1.754747220203958	1.287541096322145	-0.3135278634136466	1.742153346862025	1.107313664834262	-0.2939660657580213	1.781067938335019	0.9468818783612435	-0.2871663439738338	1.722967378248221	0.934640199049198	-0.2650796643106398	1.81806088307778	1.041894059508318	-0.3980598441312594	1.655119487377761	1.091112525654395	-0.4657950165163592	1.470006243518204	0.2797800394794991	-0.4141887868456843	1.582260359778028	0.0933493428268015	-0.4625638714647988	1.581718378127505	0.1056816292897965	-0.3893031787963179	1.827087467860439	0.8410874448885067	-0.3500077335449893	1.89199238016604	0.7347511008082165	-0.382526352694845	1.857233723272685	0.5929359823945538	-0.3651233588648722	1.798986358442829	0.4115167692280484	-0.4256340604025516	1.700113372746345	0.3930347711148869	-0.3591451467644243	1.642589245989402	0.2884940948471675	-0.4220751243107212	1.881385082396021	0.5150353969437262	-0.3687721131531905	1.881850828713895	0.5233932857356075	-0.4812545536419	1.539733277422249	0.2520055666172043	-0.3755734182210794	1.552829893706532	0.2465570128202227	-0.4572030718841621	1.760134772075954	0.9467802176333432	-0.4222647944836456	1.884753837266067	0.524157370787964	-0.4322419757922469	1.692282871648332	1.17026098507294	-0.3162620088155005	1.526199112111021	0.2468819716508133	-0.4205781397270787	1.781405146367705	1.453591525808214	-0.354882319226862	1.790278947945866	1.499168037638964	-0.6829146517783659	1.833415544632327	1.438504585773056	-0.6446204309329956	1.730357662388825	1.476043275289241	-0.6704874482558202	1.746087024017839	1.167217536241894	-0.7887007027048768	1.71794654412755	1.158857886862368	-0.7219877044451473	1.773925889609544	1.373919743853216	-0.7458354747068174	1.720162026635529	1.310795097688681	-0.7245535140139217	1.788694072579456	1.290180311683919	-0.7455840472841119	1.796838185269369	1.100763884823057	-0.7682734042372225	1.851327758476828	0.9476311621581004	-0.7734423214597665	1.801615886789643	0.939059977961029	-0.8066956868547421	1.815778431224436	1.054644726291994	-0.6522277568846843	1.649250975921587	1.094030644143311	-0.5657931097921863	1.630006697471738	0.05895820505255604	-0.5975799793569024	1.848308224205682	0.01716403510909651	-0.5331673830668362	1.832909576366977	0.0294655996625232	-0.6269101159486853	1.757709478226468	0.8135586511087385	-0.7012667025361611	1.823724951221372	0.7200155992397896	-0.6714974983576463	1.784089043463473	0.6048945409232568	-0.6622125622023863	1.792796531828341	0.3801030219563774	-0.588449153469791	1.731087802498346	0.2787864093601576	-0.6479305569571119	1.751114528841654	0.1679136726101537	-0.5964125957602728	1.789500999658844	0.5202211915575961	-0.6514635755054421	1.797262661049753	0.5216340064247666	-0.5369508480972733	1.69667490056064	0.09425258204363463	-0.6364586826468915	1.702900494366256	0.09814019015419112	-0.5590742629805969	1.749498641487414	0.9536362134418807	-0.6387940472001254	1.79751413014953	0.5213024265019393	-0.5954621807843865	1.744784004013361	1.163773253238653	-0.7477998058025188	1.690397039065392	0.08075003131096148	-0.5911379630982743	1.800434439247658	1.449595346166	-0.6776623422496346	
